#N canvas 270 23 841 702 12;
#N canvas 502 23 1366 723 euclid-engine 0;
#X obj 76 194 until;
#X obj 76 392 expr (($f1 + $f2) * $f3) % $f4, f 89;
#X text 457 104 ((COUNT+ROTATION)*HITS)%STEPS;
#X text 460 139 [< HITS];
#X text 460 120 |;
#X obj 76 246 mod, f 7;
#X obj 443 261 expr int($f1*$f2);
#X obj 446 238 hsl 128 15 0 1 0 0 empty \$0-hitsGUI HITS_(0-1) -2 -8
0 10 -232576 -1 -1 0 1;
#X obj 76 441 <;
#X msg 76 469 add2 \$1;
#X msg 76 523 1 0 1 1 1 0 1 1;
#X msg 152 487 set;
#X floatatom 443 284 5 0 0 0 - - -;
#X obj 235 243 expr int($f1*$f2);
#X obj 238 202 hsl 128 15 0 1 0 0 empty \$0-rotGUI ROTATION_(0-1) -2
-8 0 10 -203904 -1 -1 0 1;
#X floatatom 235 266 5 0 0 0 - - -;
#X obj 76 220 cup;
#X obj 76 141 t f f f, f 14;
#X obj 79 59 hsl 128 15 0 16 0 0 empty \$0-stepsGUI Steps -2 -8 0 10
-204786 -1 -1 0 1;
#X floatatom 76 100 5 0 0 0 - - -;
#X obj 76 77 i;
#X obj 236 319 t b b f;
#X obj 443 318 t b b f;
#X msg 171 203 0;
#X obj 873 182 until;
#X obj 874 380 expr (($f1 + $f2) * $f3) % $f4, f 89;
#X text 1255 92 ((COUNT+ROTATION)*HITS)%STEPS;
#X text 1258 127 [< HITS];
#X text 1258 108 |;
#X obj 874 236 mod, f 7;
#X obj 1241 249 expr int($f1*$f2);
#X obj 1244 226 hsl 128 15 0 1 0 0 empty \$0-accGUI ACCENTS_(0-1) -2
-8 0 10 -232576 -1 -1 0 1;
#X obj 874 429 <;
#X msg 874 457 add2 \$1;
#X msg 874 501 1 0 1 0 1 0;
#X msg 950 465 set;
#X floatatom 1241 272 5 0 0 0 - - -;
#X obj 1033 231 expr int($f1*$f2);
#X obj 1036 190 hsl 128 15 0 1 0 0 empty \$0-accrotGUI ROTATION_(0-1)
-2 -8 0 10 -203904 -1 -1 0 1;
#X floatatom 1033 254 5 0 0 0 - - -;
#X obj 874 210 cup;
#X obj 874 129 t f f f, f 14;
#X obj 877 47 hsl 128 15 0 16 0 0 empty empty HITS -2 -8 0 10 -262144
-1 -1 0 1;
#X floatatom 874 88 5 0 0 0 - - -;
#X obj 874 65 i;
#X obj 1034 307 t b b f;
#X obj 1241 306 t b b f;
#X msg 969 191 0;
#X obj 76 579 list-idx;
#X obj 30 290 t f f, f 7;
#X obj 754 475 sel 1;
#X obj 754 560 cup;
#X obj 754 585 mod;
#X msg 805 541 0;
#X obj 773 519 t f b;
#X obj 801 636 list-idx;
#X obj 753 611 t b f, f 15;
#X obj 76 658 expr if($f1+$f2==2 \, 2 \, $f1);
#X obj 76 602 t a a;
#X obj 28 677 print;
#X obj 11 546 t b f, f 17;
#X obj 463 600 r \$0-steps;
#X msg 463 626 resize \$1;
#X obj 463 651 s \$0-euclidAccent;
#X obj 184 160 s \$0-steps;
#X obj 351 219 r \$0-steps;
#X obj 443 197 r \$0-resetACC;
#X obj 696 242 r \$0-steps;
#X obj 443 343 s \$0-resetH;
#X obj 372 280 s \$0-hits;
#X obj 236 343 s \$0-resetR;
#X obj 152 464 r \$0-steps;
#X obj 94 418 r \$0-hits;
#X obj 108 624 s \$0-list1;
#X obj 262 631 r \$0-list2;
#X obj 801 666 s \$0-list2;
#X obj 773 497 r \$0-hits;
#X obj 754 450 r \$0-list1;
#X obj 950 441 r \$0-hitsACC;
#X obj 892 407 r \$0-acc;
#X obj 1494 230 r \$0-hits;
#X obj 1241 331 s \$0-resetACC;
#X obj 1162 268 s \$0-acc;
#X obj 1034 332 s \$0-resetACC;
#X obj 1149 207 r \$0-steps;
#X obj 981 148 s \$0-hitsACC;
#X obj 874 12 r \$0-hits;
#X obj 949 272 s \$0-accrot;
#X obj 159 284 s \$0-rot;
#X obj -8 60 r \$0-resetH;
#X obj -13 79 r \$0-resetR;
#X obj 76 688 tabwrite \$0-euclidAccent;
#X connect 0 0 16 0;
#X connect 1 0 8 0;
#X connect 5 0 49 0;
#X connect 6 0 12 0;
#X connect 6 0 69 0;
#X connect 7 0 6 0;
#X connect 8 0 9 0;
#X connect 9 0 10 0;
#X connect 10 0 48 0;
#X connect 11 0 10 0;
#X connect 12 0 22 0;
#X connect 13 0 15 0;
#X connect 14 0 13 0;
#X connect 15 0 21 0;
#X connect 15 0 88 0;
#X connect 16 0 5 0;
#X connect 17 0 0 0;
#X connect 17 1 5 1;
#X connect 17 2 23 0;
#X connect 17 2 64 0;
#X connect 18 0 20 0;
#X connect 19 0 17 0;
#X connect 20 0 19 0;
#X connect 21 0 70 0;
#X connect 21 1 1 0;
#X connect 21 2 1 1;
#X connect 22 0 68 0;
#X connect 22 1 1 0;
#X connect 22 2 1 2;
#X connect 23 0 16 0;
#X connect 24 0 40 0;
#X connect 25 0 32 0;
#X connect 29 0 25 0;
#X connect 30 0 36 0;
#X connect 30 0 82 0;
#X connect 31 0 30 0;
#X connect 32 0 33 0;
#X connect 33 0 34 0;
#X connect 34 0 55 0;
#X connect 35 0 34 0;
#X connect 36 0 46 0;
#X connect 37 0 39 0;
#X connect 38 0 37 0;
#X connect 39 0 45 0;
#X connect 39 0 87 0;
#X connect 40 0 29 0;
#X connect 41 0 24 0;
#X connect 41 1 29 1;
#X connect 41 2 47 0;
#X connect 41 2 85 0;
#X connect 42 0 44 0;
#X connect 43 0 41 0;
#X connect 44 0 43 0;
#X connect 45 0 83 0;
#X connect 45 1 25 0;
#X connect 45 2 25 1;
#X connect 46 0 81 0;
#X connect 46 1 25 0;
#X connect 46 2 25 2;
#X connect 47 0 40 0;
#X connect 48 0 58 0;
#X connect 49 0 60 0;
#X connect 49 1 1 0;
#X connect 50 0 51 0;
#X connect 51 0 52 0;
#X connect 52 0 56 0;
#X connect 53 0 51 0;
#X connect 54 0 52 1;
#X connect 54 1 53 0;
#X connect 55 0 75 0;
#X connect 56 0 34 0;
#X connect 56 1 55 1;
#X connect 57 0 59 0;
#X connect 57 0 91 0;
#X connect 58 0 57 0;
#X connect 58 1 73 0;
#X connect 60 0 10 0;
#X connect 60 1 48 1;
#X connect 60 1 91 1;
#X connect 61 0 62 0;
#X connect 62 0 63 0;
#X connect 65 0 13 1;
#X connect 66 0 7 0;
#X connect 67 0 6 1;
#X connect 67 0 1 3;
#X connect 71 0 11 0;
#X connect 72 0 8 1;
#X connect 74 0 57 1;
#X connect 76 0 54 0;
#X connect 77 0 50 0;
#X connect 78 0 35 0;
#X connect 79 0 32 1;
#X connect 80 0 30 1;
#X connect 80 0 25 3;
#X connect 84 0 37 1;
#X connect 86 0 42 0;
#X connect 89 0 19 0;
#X connect 90 0 19 0;
#X restore 513 143 pd euclid-engine;
#N canvas 0 22 450 278 (subpatch) 0;
#X array \$0-euclidAccent 8 float 3;
#A 0 2 0 1 2 1 0 2 1;
#X coords 0 2.1 8 -0.1 150 45 2 0 0;
#X restore 116 409 graph;
#X obj 109 244 hsl 128 15 0 1 0 0 \$0-hitsGUI empty HITS -2 -8 0 10
-232576 -1 -1 0 1;
#X obj 108 210 hsl 128 15 0 16 0 0 \$0-stepsGUI empty STEPS -2 -8 0
10 -204786 -1 -1 0 1;
#X floatatom 239 207 5 0 0 0 - #0-steps -;
#X floatatom 240 242 5 0 0 0 - #0-hits -;
#X obj 110 177 hsl 128 15 100 1000 0 0 empty empty Duration_ms -2 -8
0 10 -262130 -1 -1 0 1;
#X floatatom 241 175 5 0 0 0 - - #0-dur;
#X obj 108 138 hsl 128 15 0 127 0 0 empty empty MIDI_NOTE -2 -8 0 10
-261234 -1 -1 0 1;
#X floatatom 239 136 5 0 0 0 - - #0-note;
#X obj 119 456 hsl 150 10 0 8 0 0 empty \$0-seqGUI empty -2 -8 0 10
-228856 -1 -1 0 1;
#X obj 110 285 hsl 128 15 0 1 0 0 \$0-rotGUI empty ROTATION -2 -8 0
10 -203904 -1 -1 0 1;
#X floatatom 241 283 5 0 0 0 - #0-rot -;
#X obj 112 326 hsl 128 15 0 1 0 0 \$0-accGUI empty ACCENT -2 -8 0 10
-228856 -1 -1 0 1;
#X floatatom 243 324 5 0 0 0 - #0-acc -;
#X obj 113 365 hsl 128 15 0 1 0 0 \$0-accrotGUI empty ACCENT_ROTATION
-2 -8 0 10 -191407 -1 -1 0 1;
#X floatatom 244 363 5 0 0 0 - #0-accrot -;
#X obj 519 581 makenote;
#X obj 519 610 noteout, f 16;
#X obj 590 322 cup;
#X obj 590 344 mod;
#X obj 621 325 r \$0-steps;
#X obj 522 279 inlet;
#X msg 519 547 41 0 177.953;
#X obj 519 497 pack f f f, f 29;
#X obj 687 429 t b f;
#X msg 519 521 set \$1 \$2 \$3;
#X obj 590 402 t b f;
#X obj 440 478 r \$0-note;
#X obj 687 407 r \$0-dur;
#X obj 521 303 t b b;
#X obj 623 348 s \$0-seqGUI;
#X obj 590 369 tabread \$0-euclidAccent;
#X obj 106 56 s \$0-seqGUI;
#X obj 106 9 r \$0-steps;
#X msg 107 34 range 0 \$1;
#X obj 619 468 expr if($f1==2 \, 127 \, $f1*90);
#X connect 6 0 7 0;
#X connect 8 0 9 0;
#X connect 17 0 18 0;
#X connect 17 1 18 1;
#X connect 19 0 20 0;
#X connect 20 0 31 0;
#X connect 20 0 32 0;
#X connect 21 0 20 1;
#X connect 22 0 30 0;
#X connect 23 0 17 0;
#X connect 24 0 26 0;
#X connect 25 0 24 0;
#X connect 25 1 24 2;
#X connect 26 0 23 0;
#X connect 27 0 24 0;
#X connect 27 1 36 0;
#X connect 28 0 24 0;
#X connect 29 0 25 0;
#X connect 30 0 23 0;
#X connect 30 1 19 0;
#X connect 32 0 27 0;
#X connect 34 0 35 0;
#X connect 35 0 33 0;
#X connect 36 0 24 1;
#X coords 0 -1 1 1 200 370 1 100 100;
