#N canvas 392 25 1032 570 12;
#X obj 136 167 until;
#X text 775 414 [< HITS];
#X text 775 437 |;
#X obj 136 248 mod, f 7;
#X obj 273 167 s steps;
#X obj 754 225 r steps;
#X obj 400 242 expr int($f1*$f2);
#X obj 403 220 hsl 128 15 0 1 0 0 empty empty HITS_(0-1) -2 -8 0 10 #e0c4fc #000000 #000000 0 1;
#X obj 136 438 <;
#X obj 339 261 s hits;
#X obj 154 414 r hits;
#X msg 136 464 add2 \$1;
#X msg 136 533 1 1 1 1 1;
#X msg 197 488 set;
#X floatatom 400 268 5 0 0 0 - - - 0;
#X obj 197 462 r steps;
#X obj 400 356 s resetH;
#X obj 62 87 r resetH;
#X obj 139 59 hsl 128 15 0 16 0 0 empty empty Steps -2 -8 0 10 #c4fcc4 #000000 #000000 0 1;
#X floatatom 136 106 5 0 0 0 - - - 0;
#X obj 136 81 i;
#X obj 136 392 expr ($f1 * $f2) % $f3, f 89;
#X obj 400 330 t b b f;
#X text 775 391 (COUNT*HITS)%STEPS;
#X msg 226 166 0;
#X text 23 532 Euclid serie>>>;
#X obj 136 220 cup;
#X obj 136 141 t f f f f, f 20;
#X connect 0 0 26 0;
#X connect 3 0 21 0;
#X connect 5 0 6 1;
#X connect 5 0 21 2;
#X connect 6 0 9 0;
#X connect 6 0 14 0;
#X connect 7 0 6 0;
#X connect 8 0 11 0;
#X connect 10 0 8 1;
#X connect 11 0 12 0;
#X connect 13 0 12 0;
#X connect 14 0 22 0;
#X connect 15 0 13 0;
#X connect 17 0 19 0;
#X connect 18 0 20 0;
#X connect 19 0 27 0;
#X connect 20 0 19 0;
#X connect 21 0 8 0;
#X connect 22 0 16 0;
#X connect 22 1 21 0;
#X connect 22 2 21 1;
#X connect 24 0 26 0;
#X connect 26 0 3 0;
#X connect 27 0 0 0;
#X connect 27 1 3 1;
#X connect 27 2 24 0;
#X connect 27 3 4 0;
