#N canvas 79 86 1032 570 12;
#X obj 136 167 until;
#X text 778 428 [< HITS];
#X text 778 409 |;
#X obj 136 248 mod, f 7;
#X obj 243 160 s steps;
#X obj 756 234 r steps;
#X obj 400 253 expr int($f1*$f2);
#X obj 403 230 hsl 128 15 0 1 0 0 empty empty HITS_(0-1) -2 -8 0 10
-232576 -1 -1 0 1;
#X obj 136 441 <;
#X obj 340 272 s hits;
#X obj 154 418 r hits;
#X msg 136 469 add2 \$1;
#X msg 136 513 0 0 0;
#X msg 212 477 set;
#X floatatom 400 276 5 0 0 0 - - -;
#X obj 212 454 r steps;
#X obj 400 354 s resetH;
#X obj 60 81 r resetH;
#X obj 136 222 cup;
#X obj 136 141 t f f f, f 14;
#X obj 139 59 hsl 128 15 0 16 0 0 empty empty Steps -2 -8 0 10 -204786
-1 -1 2400 1;
#X floatatom 136 100 5 0 0 0 - - -;
#X obj 136 77 i;
#X obj 136 392 expr ($f1 * $f2) % $f3, f 89;
#X obj 400 330 t b b f;
#X text 775 392 (COUNT*HITS)%STEPS;
#X msg 231 203 0;
#X text 23 512 Euclid serie>>>;
#X connect 0 0 18 0;
#X connect 3 0 23 0;
#X connect 5 0 6 1;
#X connect 5 0 23 2;
#X connect 6 0 9 0;
#X connect 6 0 14 0;
#X connect 7 0 6 0;
#X connect 8 0 11 0;
#X connect 10 0 8 1;
#X connect 11 0 12 0;
#X connect 13 0 12 0;
#X connect 14 0 24 0;
#X connect 15 0 13 0;
#X connect 17 0 21 0;
#X connect 18 0 3 0;
#X connect 19 0 0 0;
#X connect 19 1 3 1;
#X connect 19 2 4 0;
#X connect 19 2 26 0;
#X connect 20 0 22 0;
#X connect 21 0 19 0;
#X connect 22 0 21 0;
#X connect 23 0 8 0;
#X connect 24 0 16 0;
#X connect 24 1 23 0;
#X connect 24 2 23 1;
#X connect 26 0 18 0;
