#N canvas 204 23 994 633 12;
#X obj 145 194 until;
#X obj 146 392 expr (($f1 + $f2) * $f3) % $f4, f 89;
#X text 527 104 ((COUNT+ROTATION)*HITS)%STEPS;
#X text 530 139 [< HITS];
#X text 530 120 |;
#X obj 146 248 mod, f 7;
#X obj 254 160 s steps;
#X obj 766 242 r steps;
#X obj 513 261 expr int($f1*$f2);
#X obj 516 238 hsl 128 15 0 1 0 0 empty empty HITS_(0-1) -2 -8 0 10
-232576 -1 -1 0 1;
#X obj 146 441 <;
#X obj 464 280 s hits;
#X obj 164 418 r hits;
#X msg 146 469 add2 \$1;
#X msg 146 513 1 0 0 0 1 0 0 0;
#X msg 222 477 set;
#X floatatom 513 284 5 0 0 0 - - -;
#X obj 222 454 r steps;
#X obj 305 243 expr int($f1*$f2);
#X obj 308 202 hsl 128 15 0 1 0 0 empty empty ROTATION_(0-1) -2 -8
0 10 -203904 -1 -1 0 1;
#X floatatom 305 266 5 0 0 0 - - -;
#X obj 421 219 r steps;
#X obj 306 344 s resetR;
#X obj 513 343 s resetH;
#X obj 72 60 r resetH;
#X obj 72 81 r resetR;
#X obj 146 222 cup;
#X obj 146 141 t f f f, f 14;
#X obj 149 59 hsl 128 15 0 16 0 0 empty empty Steps -2 -8 0 10 -204786
-1 -1 0 1;
#X floatatom 146 100 5 0 0 0 - - -;
#X obj 146 77 i;
#X obj 306 319 t b b f;
#X obj 513 318 t b b f;
#X msg 241 203 0;
#X text 23 515 Euclid serie >>>;
#X connect 0 0 26 0;
#X connect 1 0 10 0;
#X connect 5 0 1 0;
#X connect 7 0 8 1;
#X connect 7 0 1 3;
#X connect 8 0 11 0;
#X connect 8 0 16 0;
#X connect 9 0 8 0;
#X connect 10 0 13 0;
#X connect 12 0 10 1;
#X connect 13 0 14 0;
#X connect 15 0 14 0;
#X connect 16 0 32 0;
#X connect 17 0 15 0;
#X connect 18 0 20 0;
#X connect 19 0 18 0;
#X connect 20 0 31 0;
#X connect 21 0 18 1;
#X connect 24 0 29 0;
#X connect 25 0 29 0;
#X connect 26 0 5 0;
#X connect 27 0 0 0;
#X connect 27 1 5 1;
#X connect 27 2 6 0;
#X connect 27 2 33 0;
#X connect 28 0 30 0;
#X connect 29 0 27 0;
#X connect 30 0 29 0;
#X connect 31 0 22 0;
#X connect 31 1 1 0;
#X connect 31 2 1 1;
#X connect 32 0 23 0;
#X connect 32 1 1 0;
#X connect 32 2 1 2;
#X connect 33 0 26 0;
