#N canvas 74 25 1440 847 12;
#X obj 76 194 until;
#X obj 76 392 expr (($f1 + $f2) * $f3) % $f4, f 89;
#X text 457 104 ((COUNT+ROTATION)*HITS)%STEPS;
#X text 460 139 [< HITS];
#X text 460 120 |;
#X obj 76 246 mod, f 7;
#X obj 184 160 s steps;
#X obj 696 242 r steps;
#X obj 443 261 expr int($f1*$f2);
#X obj 446 238 hsl 128 15 0 1 0 0 empty empty HITS_(0-1) -2 -8 0 10 #e0c4fc #000000 #000000 0 1;
#X obj 76 441 <;
#X obj 390 280 s hits;
#X obj 94 418 r hits;
#X msg 76 469 add2 \$1;
#X msg 76 523 0 0 1 0 1 0 1 0 1 0 0 1 0 1 0 1;
#X msg 152 487 set;
#X floatatom 443 284 5 0 0 0 - - - 0;
#X obj 152 464 r steps;
#X obj 235 243 expr int($f1*$f2);
#X obj 238 202 hsl 128 15 0 1 0 0 empty empty ROTATION_(0-1) -2 -8 0 10 #c4c4fc #000000 #000000 0 1;
#X floatatom 235 266 5 0 0 0 - - - 0;
#X obj 351 219 r steps;
#X obj 236 344 s resetR;
#X obj 443 343 s resetH;
#X obj 2 60 r resetH;
#X obj 2 81 r resetR;
#X obj 76 141 t f f f, f 14;
#X obj 79 59 hsl 128 15 0 16 0 0 empty empty Steps -2 -8 0 10 #c4fcc4 #000000 #000000 0 1;
#X floatatom 76 100 5 0 0 0 - - - 0;
#X obj 76 77 i;
#X obj 236 319 t b b f;
#X obj 443 318 t b b f;
#X msg 171 203 0;
#X obj 873 182 until;
#X obj 874 380 expr (($f1 + $f2) * $f3) % $f4, f 89;
#X text 1255 92 ((COUNT+ROTATION)*HITS)%STEPS;
#X text 1258 127 [< HITS];
#X text 1258 108 |;
#X obj 874 236 mod, f 7;
#X obj 1241 249 expr int($f1*$f2);
#X obj 1244 226 hsl 128 15 0 1 0 0 empty empty ACCENTS_(0-1) -2 -8 0 10 #e0c4fc #000000 #000000 0 1;
#X obj 874 429 <;
#X msg 874 457 add2 \$1;
#X msg 874 501 1 0 0 1 0 1 0;
#X msg 950 465 set;
#X floatatom 1241 272 5 0 0 0 - - - 0;
#X obj 1033 231 expr int($f1*$f2);
#X obj 1036 190 hsl 128 15 0 1 0 0 empty empty ROTATION_(0-1) -2 -8 0 10 #c4c4fc #000000 #000000 0 1;
#X floatatom 1033 254 5 0 0 0 - - - 0;
#X obj 1149 207 r steps;
#X obj 874 129 t f f f, f 14;
#X obj 877 47 hsl 128 15 0 16 0 0 empty empty HITS -2 -8 0 10 #fcfcfc #000000 #000000 0 1;
#X floatatom 874 88 5 0 0 0 - - - 0;
#X obj 874 65 i;
#X obj 1034 307 t b b f;
#X obj 1241 306 t b b f;
#X msg 969 176 0;
#X obj 874 12 r hits;
#X obj 1241 331 s resetACC;
#X obj 1494 230 r hits;
#X obj 981 148 s hitsACC;
#X obj 950 441 r hitsACC;
#X obj 1192 268 s acc;
#X obj 892 407 r acc;
#X obj 76 579 list-idx;
#X obj 30 290 t f f, f 7;
#X obj 754 475 sel 1;
#X obj 754 585 mod;
#X msg 805 541 0;
#X obj 773 519 t f b;
#X obj 754 450 r list1;
#X obj 801 636 list-idx;
#X obj 753 611 t b f, f 15;
#X obj 773 497 r hits;
#X obj 1034 332 s resetACC;
#X obj 443 197 r resetACC;
#X obj 801 666 s list2;
#X obj 76 658 expr if($f1+$f2==2 \, 2 \, $f1);
#X obj 262 631 r list2;
#X obj 76 602 t a a;
#X obj 108 624 s list1;
#X obj 76 688 tabwrite euclid;
#N canvas 0 22 450 278 (subpatch) 0;
#X array euclid 16 float 3;
#A 0 0 0 2 0 1 0 1 0 2 0 0 1 0 2 0 1;
#X coords 0 2.1 16 -0.1 200 140 1 0 0;
#X restore 353 561 graph;
#X obj 28 677 print;
#X obj 11 546 t b f, f 17;
#X msg 351 515 \; euclid resize \$1;
#X obj 351 491 r steps;
#X obj 76 221 f;
#X obj 106 221 + 1;
#X obj 873 207 f;
#X obj 903 207 + 1;
#X obj 752 561 f;
#X obj 782 561 + 1;
#X connect 0 0 87 0;
#X connect 1 0 10 0;
#X connect 5 0 65 0;
#X connect 7 0 8 1;
#X connect 7 0 1 3;
#X connect 8 0 11 0;
#X connect 8 0 16 0;
#X connect 9 0 8 0;
#X connect 10 0 13 0;
#X connect 12 0 10 1;
#X connect 13 0 14 0;
#X connect 14 0 64 0;
#X connect 15 0 14 0;
#X connect 16 0 31 0;
#X connect 17 0 15 0;
#X connect 18 0 20 0;
#X connect 19 0 18 0;
#X connect 20 0 30 0;
#X connect 21 0 18 1;
#X connect 24 0 28 0;
#X connect 25 0 28 0;
#X connect 26 0 0 0;
#X connect 26 1 5 1;
#X connect 26 2 6 0;
#X connect 26 2 32 0;
#X connect 27 0 29 0;
#X connect 28 0 26 0;
#X connect 29 0 28 0;
#X connect 30 0 22 0;
#X connect 30 1 1 0;
#X connect 30 2 1 1;
#X connect 31 0 23 0;
#X connect 31 1 1 0;
#X connect 31 2 1 2;
#X connect 32 0 87 1;
#X connect 33 0 89 0;
#X connect 34 0 41 0;
#X connect 38 0 34 0;
#X connect 39 0 45 0;
#X connect 39 0 62 0;
#X connect 40 0 39 0;
#X connect 41 0 42 0;
#X connect 42 0 43 0;
#X connect 43 0 71 0;
#X connect 44 0 43 0;
#X connect 45 0 55 0;
#X connect 46 0 48 0;
#X connect 47 0 46 0;
#X connect 48 0 54 0;
#X connect 49 0 46 1;
#X connect 50 0 33 0;
#X connect 50 1 38 1;
#X connect 50 2 56 0;
#X connect 50 2 60 0;
#X connect 51 0 53 0;
#X connect 52 0 50 0;
#X connect 53 0 52 0;
#X connect 54 0 74 0;
#X connect 54 1 34 0;
#X connect 54 2 34 1;
#X connect 55 0 58 0;
#X connect 55 1 34 0;
#X connect 55 2 34 2;
#X connect 56 0 89 1;
#X connect 57 0 51 0;
#X connect 59 0 39 1;
#X connect 59 0 34 3;
#X connect 61 0 44 0;
#X connect 63 0 41 1;
#X connect 64 0 79 0;
#X connect 65 0 84 0;
#X connect 65 1 1 0;
#X connect 66 0 91 0;
#X connect 67 0 72 0;
#X connect 68 0 91 1;
#X connect 69 0 67 1;
#X connect 69 1 68 0;
#X connect 70 0 66 0;
#X connect 71 0 76 0;
#X connect 72 0 43 0;
#X connect 72 1 71 1;
#X connect 73 0 69 0;
#X connect 75 0 9 0;
#X connect 77 0 81 0;
#X connect 77 0 83 0;
#X connect 78 0 77 1;
#X connect 79 0 77 0;
#X connect 79 1 80 0;
#X connect 84 0 14 0;
#X connect 84 1 64 1;
#X connect 84 1 81 1;
#X connect 86 0 85 0;
#X connect 87 0 88 0;
#X connect 87 0 5 0;
#X connect 88 0 87 1;
#X connect 89 0 90 0;
#X connect 89 0 38 0;
#X connect 90 0 89 1;
#X connect 91 0 92 0;
#X connect 91 0 67 0;
#X connect 92 0 91 1;
