#N canvas 167 42 1224 698 12;
#X obj 535 194 until;
#X obj 536 392 expr (($f1 + $f2) * $f3) % $f4, f 89;
#X text 917 104 ((COUNT+ROTATION)*HITS)%STEPS;
#X text 920 139 [< HITS];
#X text 920 120 |;
#X obj 536 248 mod, f 7;
#X obj 903 261 expr int($f1*$f2);
#X obj 906 238 hsl 128 15 0 1 0 0 empty \$0-hitsGUI HITS -2 -8 0 10 #e0c4fc #000000 #000000 0 1;
#X obj 536 441 <;
#X msg 536 469 add2 \$1;
#X msg 536 513 1 0 0 0 0 0 0 0 1 0 0 0 0 0 0 0;
#X msg 612 477 set;
#X floatatom 903 284 5 0 0 0 - - - 0;
#X obj 695 243 expr int($f1*$f2);
#X obj 698 202 hsl 128 15 0 1 0 0 empty \$0-rotGUI ROTATION_(0-1) -2 -8 0 10 #c4c4fc #000000 #000000 0 1;
#X floatatom 695 266 5 0 0 0 - - - 0;
#X obj 536 141 t f f f, f 14;
#X obj 539 59 hsl 128 15 0 16 0 0 empty \$0-stepsGUI Steps -2 -8 0 10 #c4fcc4 #000000 #000000 0 1;
#X floatatom 536 100 5 0 0 0 - - - 0;
#X obj 536 77 i;
#X obj 696 319 t b b f;
#X obj 903 318 t b b f;
#X msg 631 203 0;
#N canvas 0 22 450 278 (subpatch) 0;
#X array \$0-euclidRotation 16 float 3;
#A 0 1 0 0 0 0 0 0 0 1 0 0 0 0 0 0 0;
#X coords 0 1.1 16 -0.1 150 45 2 0 0;
#X restore 116 331 graph;
#X obj 109 236 hsl 128 15 0 1 0 0 \$0-hitsGUI empty HITS -2 -8 0 10 #e0c4fc #000000 #000000 0 1;
#X obj 108 202 hsl 128 15 0 16 0 0 \$0-stepsGUI empty STEPS -2 -8 0 10 #c4fcc4 #000000 #000000 0 1;
#X floatatom 239 199 5 0 0 0 - \$0-steps - 0;
#X floatatom 240 234 5 0 0 0 - \$0-hits - 0;
#X obj 110 169 hsl 128 15 100 1000 0 0 empty empty Duration_ms -2 -8 0 10 #fcfcc4 #000000 #000000 0 1;
#X floatatom 241 167 5 0 0 0 - - \$0-dur 0;
#X obj 108 130 hsl 128 15 0 127 0 0 empty empty MIDI_NOTE -2 -8 0 10 #fcc4c4 #000000 #000000 0 1;
#X floatatom 239 128 5 0 0 0 - - \$0-note 0;
#X obj 119 378 hsl 150 10 0 16 0 0 empty \$0-seqGUI empty -2 -8 0 10 #dcdcdc #000000 #000000 0 1;
#X obj 491 554 tabwrite \$0-euclidRotation;
#X obj 537 318 t f f, f 19;
#X obj 741 530 r \$0-steps;
#X msg 741 556 resize \$1;
#X obj 741 581 s \$0-euclidRotation;
#X obj 442 60 r \$0-resetH;
#X obj 442 81 r \$0-resetR;
#X obj 644 160 s \$0-steps;
#X obj 811 220 r \$0-steps;
#X obj 834 280 s \$0-hits;
#X obj 1156 242 r \$0-steps;
#X obj 903 343 s \$0-resetH;
#X obj 696 344 s \$0-resetR;
#X obj 554 418 r \$0-hits;
#X obj 613 454 r \$0-steps;
#X obj 110 277 hsl 128 15 0 1 0 0 \$0-rotGUI empty ROTATION -2 -8 0 10 #c4c4fc #000000 #000000 0 1;
#X floatatom 241 275 5 0 0 0 - \$0-rot - 0;
#X obj 93 53 s \$0-seqGUI;
#X obj 93 6 r \$0-steps;
#X msg 94 31 range 0 \$1;
#X obj 69 662 makenote;
#X obj 69 691 noteout, f 16;
#X obj 140 465 mod;
#X obj 171 446 r \$0-steps;
#X obj 72 400 inlet;
#X msg 69 628 0 0 0;
#X obj 69 578 pack f f f, f 29;
#X obj 237 550 t b f;
#X msg 69 602 set \$1 \$2 \$3;
#X obj 140 523 t b f;
#X obj 69 541 r \$0-note;
#X obj 237 528 r \$0-dur;
#X obj 171 549 * 100;
#X obj 71 424 t b b;
#X obj 173 469 s \$0-seqGUI;
#X obj 140 490 tabread \$0-euclidRotation;
#X obj 702 287 s \$0-rot;
#X obj 536 222 f;
#X obj 569 222 + 1;
#X obj 152 419 f;
#X obj 184 418 + 1;
#X connect 0 0 70 0;
#X connect 1 0 8 0;
#X connect 5 0 34 0;
#X connect 6 0 12 0;
#X connect 6 0 42 0;
#X connect 7 0 6 0;
#X connect 8 0 9 0;
#X connect 8 0 33 0;
#X connect 9 0 10 0;
#X connect 11 0 10 0;
#X connect 12 0 21 0;
#X connect 13 0 15 0;
#X connect 14 0 13 0;
#X connect 15 0 20 0;
#X connect 15 0 69 0;
#X connect 16 0 0 0;
#X connect 16 1 5 1;
#X connect 16 2 22 0;
#X connect 16 2 40 0;
#X connect 17 0 19 0;
#X connect 18 0 16 0;
#X connect 19 0 18 0;
#X connect 20 0 45 0;
#X connect 20 1 1 0;
#X connect 20 2 1 1;
#X connect 21 0 44 0;
#X connect 21 1 1 0;
#X connect 21 2 1 2;
#X connect 22 0 70 1;
#X connect 28 0 29 0;
#X connect 30 0 31 0;
#X connect 34 0 1 0;
#X connect 34 1 33 1;
#X connect 35 0 36 0;
#X connect 36 0 37 0;
#X connect 38 0 18 0;
#X connect 39 0 18 0;
#X connect 41 0 13 1;
#X connect 43 0 6 1;
#X connect 43 0 1 3;
#X connect 46 0 8 1;
#X connect 47 0 11 0;
#X connect 51 0 52 0;
#X connect 52 0 50 0;
#X connect 53 0 54 0;
#X connect 53 1 54 1;
#X connect 55 0 67 0;
#X connect 55 0 68 0;
#X connect 56 0 55 1;
#X connect 57 0 66 0;
#X connect 58 0 53 0;
#X connect 59 0 61 0;
#X connect 60 0 59 0;
#X connect 60 1 59 2;
#X connect 61 0 58 0;
#X connect 62 0 59 0;
#X connect 62 1 65 0;
#X connect 63 0 59 0;
#X connect 64 0 60 0;
#X connect 65 0 59 1;
#X connect 66 0 58 0;
#X connect 66 1 72 0;
#X connect 68 0 62 0;
#X connect 70 0 71 0;
#X connect 70 0 5 0;
#X connect 71 0 70 1;
#X connect 72 0 73 0;
#X connect 72 0 55 0;
#X connect 73 0 72 1;
#X coords 0 -1 1 1 200 300 1 100 100;
