#N canvas 532 37 1227 696 12;
#X obj 431 223 until;
#X text 923 131 [< HITS];
#X text 923 112 |;
#X obj 431 304 mod, f 7;
#X obj 695 309 expr int($f1*$f2);
#X obj 698 286 hsl 128 15 0 1 0 0 empty \$0-hitsGUI HITS_(0-1) -2 -8 0 10 #e0c4fc #000000 #000000 0 1;
#X obj 431 497 <;
#X msg 431 525 add2 \$1;
#X msg 431 569 1 0 1;
#X msg 507 533 set;
#X floatatom 695 332 5 0 0 0 - - - 0;
#X obj 431 197 t f f f, f 14;
#X obj 434 115 hsl 128 15 0 16 0 0 empty \$0-stepsGUI STEPS -2 -8 0 10 #c4fcc4 #000000 #000000 0 1;
#X floatatom 431 156 5 0 0 0 - - - 0;
#X obj 431 133 i;
#X obj 431 448 expr ($f1 * $f2) % $f3, f 89;
#X obj 695 386 t b b f;
#X text 920 95 (COUNT*HITS)%STEPS;
#X msg 526 245 0;
#X obj 507 510 r \$0-steps;
#X obj 538 216 s \$0-steps;
#X obj 347 137 r \$0-resetH;
#X obj 695 410 s \$0-resetH;
#X obj 623 327 s \$0-hits;
#X obj 1051 290 r \$0-steps;
#X obj 449 473 r \$0-hits;
#X obj 625 518 r \$0-steps;
#X obj 625 569 s \$0-euclidSimple;
#X msg 625 544 resize \$1;
#N canvas 0 22 450 278 (subpatch) 0;
#X array \$0-euclidSimple 3 float 3;
#A 0 1 0 1;
#X coords 0 1.1 3 -0.1 150 45 2 0 0;
#X restore 116 271 graph;
#X obj 69 601 makenote;
#X obj 69 630 noteout, f 16;
#X obj 140 404 mod;
#X obj 195 381 r \$0-steps;
#X obj 140 429 tabread \$0-euclidSimple;
#X obj 54 332 inlet;
#X obj 109 236 hsl 128 15 0 1 0 0 \$0-hitsGUI empty HITS -2 -8 0 10 #e0c4fc #000000 #000000 0 1;
#X obj 108 202 hsl 128 15 0 16 0 0 \$0-stepsGUI empty STEPS -2 -8 0 10 #c4fcc4 #000000 #000000 0 1;
#X floatatom 239 199 5 0 0 0 - \$0-steps - 0;
#X floatatom 240 234 5 0 0 0 - \$0-hits - 0;
#X obj 109 164 hsl 128 15 100 1000 0 0 empty empty Duration_ms -2 -8 0 10 #fcfcc4 #000000 #000000 0 1;
#X floatatom 240 162 5 0 0 0 - - \$0-dur 0;
#X msg 69 567 0 100 0;
#X obj 69 517 pack f f f, f 29;
#X obj 237 489 t b f;
#X msg 69 541 set \$1 \$2 \$3;
#X obj 140 462 t b f;
#X obj 108 130 hsl 128 15 0 127 0 0 empty empty MIDI_NOTE -2 -8 0 10 #fcc4c4 #000000 #000000 0 1;
#X floatatom 239 128 5 0 0 0 - - \$0-note 0;
#X obj 69 480 r \$0-note;
#X obj 237 467 r \$0-dur;
#X obj 416 612 tabwrite \$0-euclidSimple;
#X obj 431 360 t f f, f 22;
#X obj 171 488 * 100;
#X obj 53 356 t b b;
#X obj 119 318 hsl 150 10 0 3 0 0 empty \$0-seqGUI empty -2 -8 0 10 #dcdcdc #000000 #000000 0 1;
#X obj 138 58 s \$0-seqGUI;
#X obj 138 11 r \$0-steps;
#X obj 173 408 s \$0-seqGUI;
#X msg 139 36 range 0 \$1;
#X obj 430 265 f;
#X obj 462 265 + 1;
#X obj 103 441 print;
#X obj 136 367 f;
#X obj 167 368 + 1;
#X connect 0 0 60 0;
#X connect 3 0 52 0;
#X connect 4 0 10 0;
#X connect 4 0 23 0;
#X connect 5 0 4 0;
#X connect 6 0 7 0;
#X connect 6 0 51 0;
#X connect 7 0 8 0;
#X connect 9 0 8 0;
#X connect 10 0 16 0;
#X connect 11 0 0 0;
#X connect 11 1 3 1;
#X connect 11 2 18 0;
#X connect 11 2 20 0;
#X connect 12 0 14 0;
#X connect 13 0 11 0;
#X connect 14 0 13 0;
#X connect 15 0 6 0;
#X connect 16 0 22 0;
#X connect 16 1 15 0;
#X connect 16 2 15 1;
#X connect 18 0 60 1;
#X connect 19 0 9 0;
#X connect 21 0 13 0;
#X connect 24 0 4 1;
#X connect 24 0 15 2;
#X connect 25 0 6 1;
#X connect 26 0 28 0;
#X connect 28 0 27 0;
#X connect 30 0 31 0;
#X connect 30 1 31 1;
#X connect 32 0 34 0;
#X connect 32 0 58 0;
#X connect 32 0 62 0;
#X connect 33 0 32 1;
#X connect 34 0 46 0;
#X connect 35 0 54 0;
#X connect 40 0 41 0;
#X connect 42 0 30 0;
#X connect 43 0 45 0;
#X connect 44 0 43 0;
#X connect 44 1 43 2;
#X connect 45 0 42 0;
#X connect 46 0 43 0;
#X connect 46 1 53 0;
#X connect 47 0 48 0;
#X connect 49 0 43 0;
#X connect 50 0 44 0;
#X connect 52 0 15 0;
#X connect 52 1 51 1;
#X connect 53 0 43 1;
#X connect 54 0 42 0;
#X connect 54 1 63 0;
#X connect 57 0 59 0;
#X connect 59 0 56 0;
#X connect 60 0 61 0;
#X connect 60 0 3 0;
#X connect 61 0 60 1;
#X connect 63 0 64 0;
#X connect 63 0 32 0;
#X connect 64 0 63 1;
#X coords 0 -1 1 1 200 250 1 100 100;
