#N canvas 3 31 1109 711 12;
#X obj 47 126 bng 15 250 50 0 empty empty empty 17 7 0 10 #fcfcfc #000000 #000000;
#X obj 47 98 metro;
#X obj 47 71 tgl 15 0 empty empty empty 17 7 0 10 #c4fcfc #000000 #000000 0 1;
#X obj 81 35 hsl 128 15 20 960 0 0 empty empty empty -2 -8 0 10 #c4c4fc #000000 #000000 0 1;
#X obj 79 75 expr 60000/$f1;
#X floatatom 79 54 5 0 0 0 - - - 0;
#X text 187 75 BPM to ms;
#X obj 42 181 euclid.accent;
#X connect 0 0 7 0;
#X connect 1 0 0 0;
#X connect 2 0 1 0;
#X connect 3 0 5 0;
#X connect 4 0 1 1;
#X connect 5 0 4 0;
